<?xml version="1.0" encoding="UTF-8"?>
<svg version="1.1" xmlns="http://www.w3.org/2000/svg" width="191" height="180">
<path d="M0 0 C63.03 0 126.06 0 191 0 C191 59.4 191 118.8 191 180 C127.97 180 64.94 180 0 180 C0 120.6 0 61.2 0 0 Z " fill="#F8F8F8" transform="translate(0,0)"/>
<path d="M0 0 C63.03 0 126.06 0 191 0 C191 59.4 191 118.8 191 180 C127.97 180 64.94 180 0 180 C0 120.6 0 61.2 0 0 Z M90 12 C90 12.66 90 13.32 90 14 C89.0925 14.12375 88.185 14.2475 87.25 14.375 C85.83306734 14.5815165 84.41644376 14.79015648 83 15 C82.06929687 15.1340625 81.13859375 15.268125 80.1796875 15.40625 C74.65273797 16.25437525 69.56543668 17.36727293 64.3125 19.26953125 C59.97740244 20.63889484 55.48231189 21.28785699 51 22 C51 22.66 51 23.32 51 24 C50.21238281 24.10957031 49.42476562 24.21914063 48.61328125 24.33203125 C35.46474598 25.2740067 35.46474598 25.2740067 24 30 C23.89423543 32.60498502 23.85321976 35.18359182 23.85473633 37.78930664 C23.85137772 38.60565582 23.8480191 39.422005 23.84455872 40.26309204 C23.83501291 42.97879536 23.83310327 45.69443717 23.83203125 48.41015625 C23.8288193 50.29528326 23.82545528 52.18041002 23.82194519 54.0655365 C23.81594354 58.02766497 23.81410616 61.9897716 23.81469727 65.9519043 C23.81479852 71.01695768 23.80118929 76.08186971 23.78392506 81.14688969 C23.772773 85.04608292 23.7707791 88.94524245 23.77130699 92.84445 C23.77013005 94.71066204 23.76572439 96.57687504 23.75797462 98.44307137 C23.74811763 101.06378983 23.75107604 103.68420777 23.75708008 106.30493164 C23.75146057 107.06941116 23.74584106 107.83389069 23.74005127 108.62153625 C23.76951746 113.71292638 24.60393625 118.10003059 26 123 C26.66 123 27.32 123 28 123 C28.0825 123.825 28.165 124.65 28.25 125.5 C29.16447269 129.76753921 30.92223178 133.19236894 33 137 C33.66 137 34.32 137 35 137 C35.24492188 137.55945313 35.48984375 138.11890625 35.7421875 138.6953125 C39.67048335 145.89312166 46.8101077 152.99838573 54 157 C54.99 157 55.98 157 57 157 C57.33 157.99 57.66 158.98 58 160 C60.07942564 161.36363256 60.07942564 161.36363256 62.625 162.5 C63.53507812 162.933125 64.44515625 163.36625 65.3828125 163.8125 C67.41097639 164.73274153 69.45290631 165.62267413 71.5 166.5 C74.3936099 167.74011853 77.09573459 169.09590302 79.875 170.5625 C87.4776753 174.36958854 94.61942618 176.06828264 103 174 C110.39338116 171.43285376 117.36322942 167.91338238 124.30859375 164.33203125 C127 163 127 163 129.66015625 161.94921875 C132.20668685 161.00754095 132.20668685 161.00754095 135 159 C135 158.34 135 157.68 135 157 C135.71800781 156.74863281 136.43601562 156.49726563 137.17578125 156.23828125 C149.52695352 150.82289866 160.1479823 137.16923937 165.01463318 124.87413025 C168.68310743 114.17387875 168.34117032 102.81809156 168.37109375 91.65234375 C168.38007779 89.90548127 168.38919991 88.1586195 168.39845276 86.41175842 C168.41482716 82.77684671 168.42262386 79.14202598 168.42553711 75.50708008 C168.43096528 70.84622702 168.46887446 66.18622243 168.51428127 61.52561092 C168.5439555 57.93029088 168.55125826 54.3351799 168.55226326 50.739748 C168.55647068 49.02008665 168.56892596 47.30042497 168.58978081 45.58088493 C168.61654786 43.18730215 168.61192021 40.79575402 168.59936523 38.40209961 C168.61419952 37.69302963 168.62903381 36.98395966 168.64431763 36.25340271 C168.6670332 34.04661797 168.6670332 34.04661797 168 31 C164.37799606 28.03967066 160.59957711 27.24356143 156.0625 26.3125 C154.87785156 26.06113281 153.69320312 25.80976563 152.47265625 25.55078125 C149.24106467 25.0382341 146.26393117 24.89535488 143 25 C143 24.34 143 23.68 143 23 C142.33991943 22.86424561 141.67983887 22.72849121 140.99975586 22.58862305 C137.97737025 21.96252528 134.95747668 21.32511153 131.9375 20.6875 C130.37999023 20.36749023 130.37999023 20.36749023 128.79101562 20.04101562 C120.09830947 18.19209082 120.09830947 18.19209082 116.12109375 16.40234375 C113.05412332 15.02431824 110.43422767 14.37917596 107.125 13.875 C102.09354839 13.09354839 102.09354839 13.09354839 101 12 C99.14712498 11.92773498 97.29166122 11.9161878 95.4375 11.9375 C93.91962891 11.95103516 93.91962891 11.95103516 92.37109375 11.96484375 C91.58863281 11.97644531 90.80617188 11.98804688 90 12 Z " fill="#FBFBFB" transform="translate(0,0)"/>
<path d="M0 0 C1.72880982 -0.05449838 3.45812712 -0.09301688 5.1875 -0.125 C6.15042969 -0.14820313 7.11335938 -0.17140625 8.10546875 -0.1953125 C11.16680677 0.01125552 13.19986085 0.79611852 16 2 C18.52355384 2.55992566 21.05076127 2.99797421 23.59765625 3.4375 C26 4 26 4 27.8112793 4.95458984 C30.33058573 6.1578994 32.69088186 6.7125195 35.421875 7.2890625 C36.95908203 7.61777344 36.95908203 7.61777344 38.52734375 7.953125 C39.59082031 8.17484375 40.65429688 8.3965625 41.75 8.625 C43.36841797 8.96917969 43.36841797 8.96917969 45.01953125 9.3203125 C47.67869512 9.88509067 50.3388238 10.44479514 53 11 C53 11.66 53 12.32 53 13 C53.57105469 13.03738281 54.14210938 13.07476562 54.73046875 13.11328125 C73.64705882 14.64705882 73.64705882 14.64705882 78 19 C78.20354658 21.45064837 78.28323943 23.78877587 78.2746582 26.2409668 C78.27976913 26.98769653 78.28488007 27.73442627 78.29014587 28.50378418 C78.30409989 30.98567631 78.30307831 33.4672919 78.30078125 35.94921875 C78.30467005 37.68162641 78.3090051 39.41403312 78.31376648 41.1464386 C78.32124477 44.79077223 78.32092948 48.43500908 78.31567383 52.0793457 C78.30993066 56.70995196 78.32667592 61.34015149 78.3500185 65.97069073 C78.36489809 69.55793002 78.36560752 73.14507516 78.36250877 76.73233986 C78.36301667 78.43646857 78.36815253 80.14060332 78.37832069 81.84470177 C78.49024582 103.26062068 74.49456447 119.54370264 59.49511719 135.52246094 C49.90482485 145 49.90482485 145 45 145 C45 145.66 45 146.32 45 147 C42.37641075 149.41370211 39.5130038 150.72362025 36.234375 152.0546875 C33.38353249 153.26081318 30.60736561 154.60693001 27.8125 155.9375 C8.02662291 165.01359041 8.02662291 165.01359041 -3.4921875 161.16796875 C-6.02717542 160.17687534 -8.50880708 159.09596943 -11 158 C-12.68609341 157.35050331 -14.37359473 156.70464945 -16.0625 156.0625 C-22.07681803 153.66246457 -27.61744687 150.58836876 -33 147 C-33 146.34 -33 145.68 -33 145 C-33.56203125 144.9071875 -34.1240625 144.814375 -34.703125 144.71875 C-42.72531017 142.20840634 -50.11584478 133.57587378 -55 127 C-55 126.34 -55 125.68 -55 125 C-55.99 124.67 -56.98 124.34 -58 124 C-59.16796875 122.07421875 -59.16796875 122.07421875 -60.1875 119.6875 C-60.53167969 118.90761719 -60.87585938 118.12773437 -61.23046875 117.32421875 C-62 115 -62 115 -62 111 C-62.66 111 -63.32 111 -64 111 C-65.62206334 105.29367933 -66.29386872 100.2365864 -66.2746582 94.32080078 C-66.27976913 93.49379166 -66.28488007 92.66678253 -66.29014587 91.81471252 C-66.30393625 89.10817032 -66.30309457 86.40188543 -66.30078125 83.6953125 C-66.30467109 81.8058157 -66.30900635 79.91631976 -66.31376648 78.02682495 C-66.32120374 74.08133089 -66.32095342 70.13592639 -66.31567383 66.19042969 C-66.30985115 61.12602459 -66.32688932 56.06198189 -66.3500185 50.9976368 C-66.36471246 47.10297493 -66.36563403 43.20840156 -66.36250877 39.31371689 C-66.36302315 37.44533438 -66.36828253 35.57694707 -66.37832069 33.70859146 C-66.39059775 31.10642665 -66.38394904 28.50498444 -66.37231445 25.90283203 C-66.37995819 25.12777817 -66.38760193 24.3527243 -66.39547729 23.55418396 C-66.3742218 21.41360474 -66.3742218 21.41360474 -66 18 C-63.07153858 16.04769238 -61.58246271 15.55509175 -58.21875 14.9296875 C-57.29449219 14.75566406 -56.37023437 14.58164062 -55.41796875 14.40234375 C-54.45503906 14.22832031 -53.49210937 14.05429687 -52.5 13.875 C-51.53707031 13.69324219 -50.57414062 13.51148438 -49.58203125 13.32421875 C-42.44319784 12 -42.44319784 12 -39 12 C-39 11.34 -39 10.68 -39 10 C-38.18917969 9.81824219 -37.37835938 9.63648438 -36.54296875 9.44921875 C-31.11930568 8.21800304 -25.72627672 6.95537299 -20.375 5.4375 C-13.68285176 3.57584822 -6.96558963 2 0 2 C0 1.34 0 0.68 0 0 Z M-2.5625 21.1875 C-4.09777344 21.61482422 -4.09777344 21.61482422 -5.6640625 22.05078125 C-6.76492187 22.36402344 -7.86578125 22.67726563 -9 23 C-11.47686601 23.63405611 -13.95621736 24.25845411 -16.4375 24.875 C-17.0886377 25.03871094 -17.73977539 25.20242187 -18.41064453 25.37109375 C-22.48488042 26.39182758 -26.56689842 27.37358947 -30.65625 28.33203125 C-31.61474854 28.55713379 -32.57324707 28.78223633 -33.56079102 29.01416016 C-35.45896652 29.45845856 -37.35788225 29.89960783 -39.25756836 30.33740234 C-40.12003174 30.53930176 -40.98249512 30.74120117 -41.87109375 30.94921875 C-42.64380615 31.12799561 -43.41651855 31.30677246 -44.21264648 31.4909668 C-46.00767059 31.84554255 -46.00767059 31.84554255 -47 33 C-47.07148199 34.35243917 -47.08399454 35.70834367 -47.0625 37.0625 C-47.041875 38.361875 -47.02125 39.66125 -47 41 C-45.02 41 -43.04 41 -41 41 C-41 47.93 -41 54.86 -41 62 C-42.98 62 -44.96 62 -47 62 C-47.02887512 65.64581687 -47.04675585 69.29160463 -47.0625 72.9375 C-47.07087891 73.97841797 -47.07925781 75.01933594 -47.08789062 76.09179688 C-47.09111328 77.08115234 -47.09433594 78.07050781 -47.09765625 79.08984375 C-47.10289307 80.00628662 -47.10812988 80.92272949 -47.11352539 81.86694336 C-47.23921211 83.98363023 -47.23921211 83.98363023 -46 85 C-44.35 85 -42.7 85 -41 85 C-41.33 91.6 -41.66 98.2 -42 105 C-42.99 105.495 -42.99 105.495 -44 106 C-41.91835322 116.40823391 -32.619515 124.10956654 -24.30859375 129.86328125 C-20.19047215 132.43480577 -16.83967768 134.24620949 -12 135 C-12 135.66 -12 136.32 -12 137 C-11.34773438 137.25394531 -10.69546875 137.50789063 -10.0234375 137.76953125 C-6.13719834 139.29995287 -2.40387193 140.77476373 1.25 142.8125 C4.60672402 144.26199447 6.51479567 143.91279161 10 143 C10 142.34 10 141.68 10 141 C10.69867188 140.86722656 11.39734375 140.73445313 12.1171875 140.59765625 C13.48230469 140.33275391 13.48230469 140.33275391 14.875 140.0625 C16.23238281 139.80146484 16.23238281 139.80146484 17.6171875 139.53515625 C19.99956317 139.10036299 19.99956317 139.10036299 22 138 C22 137.34 22 136.68 22 136 C23.175625 135.690625 23.175625 135.690625 24.375 135.375 C36.03008379 130.95410615 46.7201076 122.1127917 54 112 C54.86127458 110.05054994 54.86127458 110.05054994 55.25 108.1875 C55.4975 107.135625 55.745 106.08375 56 105 C56.66 105 57.32 105 58 105 C59.14072759 101.57781722 59.12703315 98.95078895 59.12939453 95.34130859 C59.13114685 94.66948044 59.13289917 93.99765228 59.13470459 93.3054657 C59.13910351 91.08642998 59.13619268 88.86747402 59.1328125 86.6484375 C59.13348594 85.10812362 59.13445631 83.56780985 59.13571167 82.02749634 C59.13718585 78.80119819 59.13504246 75.57492774 59.13037109 72.34863281 C59.12466439 68.20444735 59.12796051 64.06032652 59.13394356 59.91614342 C59.13754855 56.73696399 59.13641104 53.55780002 59.13381577 50.37862015 C59.13314682 48.849931 59.1339738 47.32124048 59.13629532 45.79255295 C59.13882187 43.66163129 59.13498171 41.53081603 59.12939453 39.39990234 C59.12859894 38.18539398 59.12780334 36.97088562 59.12698364 35.71957397 C59.30986051 33.08540831 59.30986051 33.08540831 58 32 C56.48450199 31.71946516 54.96190847 31.47718457 53.4375 31.25 C48.64255938 30.4230733 44.11148931 29.14806069 39.5 27.625 C33.41736358 25.63919378 27.32469724 24.06530796 21.0625 22.75 C20.29421875 22.58709473 19.5259375 22.42418945 18.734375 22.25634766 C8.08596901 19.95602794 8.08596901 19.95602794 -2.5625 21.1875 Z " fill="#EEEEEE" transform="translate(90,12)"/>
<path d="M0 0 C0.68078613 0.17192871 1.36157227 0.34385742 2.06298828 0.52099609 C8.18992012 2.08505289 14.2714902 3.80367153 20.35620117 5.52319336 C25.76251534 7.03501289 31.15672754 8.26873392 36.6875 9.25 C36.6875 9.91 36.6875 10.57 36.6875 11.25 C39.3275 11.58 41.9675 11.91 44.6875 12.25 C44.6875 37 44.6875 61.75 44.6875 87.25 C43.2025 87.745 43.2025 87.745 41.6875 88.25 C41.58179688 89.14074219 41.47609375 90.03148438 41.3671875 90.94921875 C39.05875984 102.15968643 28.36827191 109.10777048 19.6875 115.4375 C-6.31841716 131.14940828 -6.31841716 131.14940828 -15.3125 130.25 C-17.6752974 129.32175817 -20.00997517 128.31902939 -22.3125 127.25 C-23.385 126.92 -24.4575 126.59 -25.5625 126.25 C-28.39522656 125.21991761 -29.2497828 124.3127172 -31.3125 122.25 C-34.41257201 121.04950593 -34.41257201 121.04950593 -37.3125 120.25 C-37.3125 119.59 -37.3125 118.93 -37.3125 118.25 C-38.611875 117.87875 -38.611875 117.87875 -39.9375 117.5 C-50.64118228 113.53567323 -58.60065679 104.84296744 -64.3125 95.25 C-64.93125 94.280625 -65.55 93.31125 -66.1875 92.3125 C-67.3125 90.25 -67.3125 90.25 -67.3125 88.25 C-69.6225 88.25 -71.9325 88.25 -74.3125 88.25 C-74.3125 81.32 -74.3125 74.39 -74.3125 67.25 C-72.6625 67.25 -71.0125 67.25 -69.3125 67.25 C-69.3125 59.66 -69.3125 52.07 -69.3125 44.25 C-70.9625 44.25 -72.6125 44.25 -74.3125 44.25 C-74.3125 37.32 -74.3125 30.39 -74.3125 23.25 C-72.6625 23.25 -71.0125 23.25 -69.3125 23.25 C-69.3125 19.62 -69.3125 15.99 -69.3125 12.25 C-66.6725 11.92 -64.0325 11.59 -61.3125 11.25 C-61.3125 10.59 -61.3125 9.93 -61.3125 9.25 C-60.31992187 9.00765625 -59.32734375 8.7653125 -58.3046875 8.515625 C-51.49592452 6.83980355 -44.72683385 5.11094651 -38 3.125 C-32.90633 1.63813624 -27.87513559 0.5408663 -22.640625 -0.30859375 C-20.11684885 -0.72188715 -20.11684885 -0.72188715 -17.0625 -1.9375 C-11.48762754 -3.58462141 -5.50130052 -1.39389131 0 0 Z M-20.875 3.4375 C-22.41027344 3.86482422 -22.41027344 3.86482422 -23.9765625 4.30078125 C-25.07742187 4.61402344 -26.17828125 4.92726563 -27.3125 5.25 C-29.78936601 5.88405611 -32.26871736 6.50845411 -34.75 7.125 C-35.4011377 7.28871094 -36.05227539 7.45242187 -36.72314453 7.62109375 C-40.79738042 8.64182758 -44.87939842 9.62358947 -48.96875 10.58203125 C-49.92724854 10.80713379 -50.88574707 11.03223633 -51.87329102 11.26416016 C-53.77146652 11.70845856 -55.67038225 12.14960783 -57.57006836 12.58740234 C-58.43253174 12.78930176 -59.29499512 12.99120117 -60.18359375 13.19921875 C-60.95630615 13.37799561 -61.72901855 13.55677246 -62.52514648 13.7409668 C-64.32017059 14.09554255 -64.32017059 14.09554255 -65.3125 15.25 C-65.38398199 16.60243917 -65.39649454 17.95834367 -65.375 19.3125 C-65.354375 20.611875 -65.33375 21.91125 -65.3125 23.25 C-63.3325 23.25 -61.3525 23.25 -59.3125 23.25 C-59.3125 30.18 -59.3125 37.11 -59.3125 44.25 C-61.2925 44.25 -63.2725 44.25 -65.3125 44.25 C-65.34137512 47.89581687 -65.35925585 51.54160463 -65.375 55.1875 C-65.38337891 56.22841797 -65.39175781 57.26933594 -65.40039062 58.34179688 C-65.40361328 59.33115234 -65.40683594 60.32050781 -65.41015625 61.33984375 C-65.41539307 62.25628662 -65.42062988 63.17272949 -65.42602539 64.11694336 C-65.55171211 66.23363023 -65.55171211 66.23363023 -64.3125 67.25 C-62.6625 67.25 -61.0125 67.25 -59.3125 67.25 C-59.6425 73.85 -59.9725 80.45 -60.3125 87.25 C-61.3025 87.745 -61.3025 87.745 -62.3125 88.25 C-60.23085322 98.65823391 -50.932015 106.35956654 -42.62109375 112.11328125 C-38.50297215 114.68480577 -35.15217768 116.49620949 -30.3125 117.25 C-30.3125 117.91 -30.3125 118.57 -30.3125 119.25 C-29.66023438 119.50394531 -29.00796875 119.75789063 -28.3359375 120.01953125 C-24.44969834 121.54995287 -20.71637193 123.02476373 -17.0625 125.0625 C-13.70577598 126.51199447 -11.79770433 126.16279161 -8.3125 125.25 C-8.3125 124.59 -8.3125 123.93 -8.3125 123.25 C-7.61382812 123.11722656 -6.91515625 122.98445313 -6.1953125 122.84765625 C-4.83019531 122.58275391 -4.83019531 122.58275391 -3.4375 122.3125 C-2.08011719 122.05146484 -2.08011719 122.05146484 -0.6953125 121.78515625 C1.68706317 121.35036299 1.68706317 121.35036299 3.6875 120.25 C3.6875 119.59 3.6875 118.93 3.6875 118.25 C4.863125 117.940625 4.863125 117.940625 6.0625 117.625 C17.71758379 113.20410615 28.4076076 104.3627917 35.6875 94.25 C36.54877458 92.30054994 36.54877458 92.30054994 36.9375 90.4375 C37.185 89.385625 37.4325 88.33375 37.6875 87.25 C38.3475 87.25 39.0075 87.25 39.6875 87.25 C40.82822759 83.82781722 40.81453315 81.20078895 40.81689453 77.59130859 C40.81864685 76.91948044 40.82039917 76.24765228 40.82220459 75.5554657 C40.82660351 73.33642998 40.82369268 71.11747402 40.8203125 68.8984375 C40.82098594 67.35812362 40.82195631 65.81780985 40.82321167 64.27749634 C40.82468585 61.05119819 40.82254246 57.82492774 40.81787109 54.59863281 C40.81216439 50.45444735 40.81546051 46.31032652 40.82144356 42.16614342 C40.82504855 38.98696399 40.82391104 35.80780002 40.82131577 32.62862015 C40.82064682 31.099931 40.8214738 29.57124048 40.82379532 28.04255295 C40.82632187 25.91163129 40.82248171 23.78081603 40.81689453 21.64990234 C40.81609894 20.43539398 40.81530334 19.22088562 40.81448364 17.96957397 C40.99736051 15.33540831 40.99736051 15.33540831 39.6875 14.25 C38.17200199 13.96946516 36.64940847 13.72718457 35.125 13.5 C30.33005938 12.6730733 25.79898931 11.39806069 21.1875 9.875 C15.10486358 7.88919378 9.01219724 6.31530796 2.75 5 C1.98171875 4.83709473 1.2134375 4.67418945 0.421875 4.50634766 C-10.22653099 2.20602794 -10.22653099 2.20602794 -20.875 3.4375 Z " fill="#232323" transform="translate(108.3125,29.75)"/>
<path d="M0 0 C1.72880982 -0.05449838 3.45812712 -0.09301688 5.1875 -0.125 C6.15042969 -0.14820313 7.11335938 -0.17140625 8.10546875 -0.1953125 C11.16680677 0.01125552 13.19986085 0.79611852 16 2 C18.52355384 2.55992566 21.05076127 2.99797421 23.59765625 3.4375 C26 4 26 4 27.8112793 4.95458984 C30.33058573 6.1578994 32.69088186 6.7125195 35.421875 7.2890625 C36.95908203 7.61777344 36.95908203 7.61777344 38.52734375 7.953125 C39.59082031 8.17484375 40.65429688 8.3965625 41.75 8.625 C43.36841797 8.96917969 43.36841797 8.96917969 45.01953125 9.3203125 C47.67869512 9.88509067 50.3388238 10.44479514 53 11 C53 11.66 53 12.32 53 13 C53.57105469 13.03738281 54.14210938 13.07476562 54.73046875 13.11328125 C73.64705882 14.64705882 73.64705882 14.64705882 78 19 C78.20354658 21.45064837 78.28323943 23.78877587 78.2746582 26.2409668 C78.27976913 26.98769653 78.28488007 27.73442627 78.29014587 28.50378418 C78.30409989 30.98567631 78.30307831 33.4672919 78.30078125 35.94921875 C78.30467005 37.68162641 78.3090051 39.41403312 78.31376648 41.1464386 C78.32124477 44.79077223 78.32092948 48.43500908 78.31567383 52.0793457 C78.30993066 56.70995196 78.32667592 61.34015149 78.3500185 65.97069073 C78.36489809 69.55793002 78.36560752 73.14507516 78.36250877 76.73233986 C78.36301667 78.43646857 78.36815253 80.14060332 78.37832069 81.84470177 C78.49024582 103.26062068 74.49456447 119.54370264 59.49511719 135.52246094 C49.90482485 145 49.90482485 145 45 145 C45 145.66 45 146.32 45 147 C42.37641075 149.41370211 39.5130038 150.72362025 36.234375 152.0546875 C33.38353249 153.26081318 30.60736561 154.60693001 27.8125 155.9375 C8.02662291 165.01359041 8.02662291 165.01359041 -3.4921875 161.16796875 C-6.02717542 160.17687534 -8.50880708 159.09596943 -11 158 C-12.68609341 157.35050331 -14.37359473 156.70464945 -16.0625 156.0625 C-22.07681803 153.66246457 -27.61744687 150.58836876 -33 147 C-33 146.34 -33 145.68 -33 145 C-33.56203125 144.9071875 -34.1240625 144.814375 -34.703125 144.71875 C-42.72531017 142.20840634 -50.11584478 133.57587378 -55 127 C-55 126.34 -55 125.68 -55 125 C-55.99 124.67 -56.98 124.34 -58 124 C-59.16796875 122.07421875 -59.16796875 122.07421875 -60.1875 119.6875 C-60.53167969 118.90761719 -60.87585938 118.12773437 -61.23046875 117.32421875 C-62 115 -62 115 -62 111 C-62.66 111 -63.32 111 -64 111 C-65.62206334 105.29367933 -66.29386872 100.2365864 -66.2746582 94.32080078 C-66.27976913 93.49379166 -66.28488007 92.66678253 -66.29014587 91.81471252 C-66.30393625 89.10817032 -66.30309457 86.40188543 -66.30078125 83.6953125 C-66.30467109 81.8058157 -66.30900635 79.91631976 -66.31376648 78.02682495 C-66.32120374 74.08133089 -66.32095342 70.13592639 -66.31567383 66.19042969 C-66.30985115 61.12602459 -66.32688932 56.06198189 -66.3500185 50.9976368 C-66.36471246 47.10297493 -66.36563403 43.20840156 -66.36250877 39.31371689 C-66.36302315 37.44533438 -66.36828253 35.57694707 -66.37832069 33.70859146 C-66.39059775 31.10642665 -66.38394904 28.50498444 -66.37231445 25.90283203 C-66.37995819 25.12777817 -66.38760193 24.3527243 -66.39547729 23.55418396 C-66.3742218 21.41360474 -66.3742218 21.41360474 -66 18 C-63.07153858 16.04769238 -61.58246271 15.55509175 -58.21875 14.9296875 C-57.29449219 14.75566406 -56.37023437 14.58164062 -55.41796875 14.40234375 C-54.45503906 14.22832031 -53.49210937 14.05429687 -52.5 13.875 C-51.53707031 13.69324219 -50.57414062 13.51148438 -49.58203125 13.32421875 C-42.44319784 12 -42.44319784 12 -39 12 C-39 11.34 -39 10.68 -39 10 C-38.18917969 9.81824219 -37.37835938 9.63648438 -36.54296875 9.44921875 C-31.11930568 8.21800304 -25.72627672 6.95537299 -20.375 5.4375 C-13.68285176 3.57584822 -6.96558963 2 0 2 C0 1.34 0 0.68 0 0 Z M-27.984375 12.16796875 C-30.97895279 12.99419293 -33.92910995 13.54488306 -37 14 C-37 14.66 -37 15.32 -37 16 C-37.89460938 16.12117188 -38.78921875 16.24234375 -39.7109375 16.3671875 C-51.54195413 16.95509256 -51.54195413 16.95509256 -62 21 C-62.11632542 23.45115564 -62.16799124 25.87452141 -62.17700195 28.3269043 C-62.18357315 29.09460144 -62.19014435 29.86229858 -62.19691467 30.65325928 C-62.21672011 33.21024672 -62.22833529 35.76717481 -62.23828125 38.32421875 C-62.24235678 39.19946512 -62.2464323 40.07471149 -62.25063133 40.97648048 C-62.27153739 45.62209464 -62.28581111 50.26767899 -62.29516602 54.91333008 C-62.30615189 59.68200369 -62.34044651 64.45020045 -62.38033772 69.21870708 C-62.4066903 72.90711745 -62.41487495 76.59541837 -62.41844749 80.28391457 C-62.42327709 82.0391335 -62.43478563 83.79434876 -62.45348549 85.54947472 C-62.56206229 96.42957959 -61.70183506 105.70089496 -58 116 C-57.34 116 -56.68 116 -56 116 C-55.73445313 116.73476562 -55.46890625 117.46953125 -55.1953125 118.2265625 C-47.13337192 136.93237234 -23.8252599 148.62403038 -6 156 C-5.23816406 156.37769531 -4.47632813 156.75539062 -3.69140625 157.14453125 C2.83811073 160.19028098 7.20111168 160.34148128 14 158 C17.06633472 156.78804601 20.04837804 155.46868146 23 154 C23 153.34 23 152.68 23 152 C26.3 151.01 29.6 150.02 33 149 C33 148.34 33 147.68 33 147 C33.78375 146.814375 34.5675 146.62875 35.375 146.4375 C47.38276138 141.67580152 59.18004583 130.90775545 66 120 C66.6982699 117.84383001 66.6982699 117.84383001 67 116 C67.66 116 68.32 116 69 116 C71.03993514 111.07015675 72.40652968 107.42039575 72 102 C72.66 102 73.32 102 74 102 C74.02312343 91.45618688 74.04091509 80.91237975 74.05181217 70.36854649 C74.057041 65.47314626 74.06413864 60.57776332 74.07543945 55.68237305 C74.08626834 50.96212022 74.09227684 46.24188408 74.09487724 41.5216198 C74.09673149 39.71661046 74.10035209 37.91160208 74.10573006 36.10659981 C74.11294052 33.58740356 74.11399094 31.0682771 74.11352539 28.54907227 C74.11712067 27.79525772 74.12071594 27.04144318 74.12442017 26.26478577 C74.42559536 22.84445769 74.42559536 22.84445769 73 20 C71.44412257 19.70356264 69.87764813 19.46219106 68.30859375 19.24609375 C67.36435547 19.11396484 66.42011719 18.98183594 65.44726562 18.84570312 C63.95743164 18.64364258 63.95743164 18.64364258 62.4375 18.4375 C61.44041016 18.29892578 60.44332031 18.16035156 59.41601562 18.01757812 C56.94450284 17.67464094 54.47251455 17.33562546 52 17 C52 16.34 52 15.68 52 15 C51.03578125 14.80664062 50.0715625 14.61328125 49.078125 14.4140625 C47.81484375 14.15367188 46.5515625 13.89328125 45.25 13.625 C43.99703125 13.36976562 42.7440625 13.11453125 41.453125 12.8515625 C38 12 38 12 36.01171875 10.9921875 C33.01576178 9.51456989 29.82470419 9.08037259 26.5625 8.5 C19.52234699 7.21361653 19.52234699 7.21361653 16.3828125 5.9296875 C3.35656654 0.84731613 -15.27266907 8.31454099 -27.984375 12.16796875 Z " fill="#181818" transform="translate(90,12)"/>
<path d="M0 0 C4.26428496 0.47380944 6.11490093 3.03897727 9 6 C9.66 6 10.32 6 11 6 C11.66 5.01 12.32 4.02 13 3 C21.28601494 -1.22992371 31.33362646 -0.55729055 40 2 C40.66 2.33 41.32 2.66 42 3 C42 3.66 42 4.32 42 5 C43.98 5.66 45.96 6.32 48 7 C48.2475 6.401875 48.495 5.80375 48.75 5.1875 C50.18072525 2.68373081 51.5691582 1.51927612 54 0 C54.66 0 55.32 0 56 0 C55.51300383 4.38296556 54.16604109 6.03183648 51 9 C50.67 9.99 50.34 10.98 50 12 C50.99 12.33 51.98 12.66 53 13 C56.64116614 20.08004526 56.39557068 28.22819949 56 36 C54.60804085 38.7839183 52.84424221 38.97898997 50 40 C50.02320313 38.70964844 50.04640625 37.41929688 50.0703125 36.08984375 C50.08908236 34.37240166 50.10728125 32.65495326 50.125 30.9375 C50.14175781 30.08994141 50.15851563 29.24238281 50.17578125 28.36914062 C50.21596135 23.16581799 49.69745815 18.92530179 48 14 C46.35 14.99 44.7 15.98 43 17 C43.495 23.93 43.495 23.93 44 31 C43.01 31 42.02 31 41 31 C40.7525 30.13375 40.505 29.2675 40.25 28.375 C38.7144461 24.22900446 37.00935388 20.27401587 33.1640625 17.8359375 C30.6998504 16.88405773 28.88097783 16.7976183 26.25 16.875 C25.05117187 16.90207031 25.05117187 16.90207031 23.828125 16.9296875 C23.22484375 16.95289062 22.6215625 16.97609375 22 17 C21.731875 17.639375 21.46375 18.27875 21.1875 18.9375 C20 21 20 21 17 22 C16.91846067 23.58246707 16.86056443 25.16616273 16.8125 26.75 C16.77769531 27.63171875 16.74289063 28.5134375 16.70703125 29.421875 C17.05291312 32.46563543 18.07793359 33.67939489 20 36 C20 36.66 20 37.32 20 38 C23.96 38.66 27.92 39.32 32 40 C32 40.33 32 40.66 32 41 C29.36 41 26.72 41 24 41 C24 41.66 24 42.32 24 43 C26.97 43 29.94 43 33 43 C33 43.33 33 43.66 33 44 C31.20841511 44.02696365 29.41671527 44.04637917 27.625 44.0625 C26.62726563 44.07410156 25.62953125 44.08570313 24.6015625 44.09765625 C22 44 22 44 20 43 C20 42.34 20 41.68 20 41 C17.00667261 41.9977758 16.05233685 42.7522025 14 45 C14.66875534 48.04883239 14.66875534 48.04883239 16.77832031 49.14794922 C19.10521028 50.04034988 21.06968835 50.39848403 23.546875 50.6328125 C24.39121094 50.71660156 25.23554687 50.80039063 26.10546875 50.88671875 C26.97816406 50.96535156 27.85085937 51.04398438 28.75 51.125 C29.63816406 51.21136719 30.52632812 51.29773438 31.44140625 51.38671875 C33.62702936 51.59823066 35.81308238 51.80240227 38 52 C38 52.99 38 53.98 38 55 C30.1343693 56.57312614 22.64197311 56.53216172 15 54 C13.88625 53.13375 13.88625 53.13375 12.75 52.25 C11.88375 51.63125 11.88375 51.63125 11 51 C8.28524895 51.56911789 8.28524895 51.56911789 6 53 C5.67 53.66 5.34 54.32 5 55 C4.34 55 3.68 55 3 55 C3 55.66 3 56.32 3 57 C1.68 56.67 0.36 56.34 -1 56 C-0.45912682 52.21388773 1.11722332 50.44599233 4 48 C4.66 48 5.32 48 6 48 C5.566875 47.12859375 5.13375 46.2571875 4.6875 45.359375 C-0.29007551 34.71289405 -1.84842939 26.09459424 2.05078125 14.64453125 C3 13 3 13 6 12 C4.03681826 8.46627288 1.95929119 5.75520215 -1 3 C-0.67 2.01 -0.34 1.02 0 0 Z " fill="#1E1E1E" transform="translate(68,63)"/>
<path d="M0 0 C0.99 0 1.98 0 3 0 C5.90770954 5.68567876 6.3864851 10.10569223 6.1875 16.4375 C6.16719727 17.67790039 6.16719727 17.67790039 6.14648438 18.94335938 C6.11146992 20.9625264 6.05767562 22.98135318 6 25 C6.99 24.67 7.98 24.34 9 24 C8.125 28.75 8.125 28.75 7 31 C6.34 31 5.68 31 5 31 C5.5053125 31.54269531 6.010625 32.08539063 6.53125 32.64453125 C7.1809375 33.35996094 7.830625 34.07539062 8.5 34.8125 C9.47453125 35.87404297 9.47453125 35.87404297 10.46875 36.95703125 C12 39 12 39 12 42 C8.7172317 41.63524797 7.35821973 41.40598236 5.125 38.875 C4.42375 38.25625 3.7225 37.6375 3 37 C-0.69432511 37.14612895 -0.69432511 37.14612895 -4 38 C-4 38.66 -4 39.32 -4 40 C-4.99 40 -5.98 40 -7 40 C-7 39.34 -7 38.68 -7 38 C-7.845625 38.02320313 -8.69125 38.04640625 -9.5625 38.0703125 C-26.18034119 38.33468725 -26.18034119 38.33468725 -32 33 C-31.67 32.01 -31.34 31.02 -31 30 C-30.34 30 -29.68 30 -29 30 C-28.67 29.01 -28.34 28.02 -28 27 C-27.01 27 -26.02 27 -25 27 C-25 27.66 -25 28.32 -25 29 C-23.68 29 -22.36 29 -21 29 C-21 28.01 -21 27.02 -21 26 C-21.86625 25.690625 -21.86625 25.690625 -22.75 25.375 C-25.98462874 23.39828244 -27.25888793 21.35785899 -29 18 C-29.64992858 13.90544992 -29.83593331 11.64032197 -27.96484375 7.96875 C-25.3124142 4.36321902 -22.95256279 2.56589472 -18.5 1.8125 C-13.92024349 1.6585586 -11.43284385 2.88649046 -8 6 C-5.5238542 9.06260138 -4.09308669 10.92950309 -3.75 14.875 C-3.8325 15.57625 -3.915 16.2775 -4 17 C-3.01 17 -2.02 17 -1 17 C-1.15597656 16.33613281 -1.31195313 15.67226562 -1.47265625 14.98828125 C-1.66730469 14.10527344 -1.86195312 13.22226563 -2.0625 12.3125 C-2.35833984 11.00732422 -2.35833984 11.00732422 -2.66015625 9.67578125 C-3.02631769 6.792786 -2.82797908 4.7772784 -2 2 C-1.34 1.34 -0.68 0.68 0 0 Z " fill="#191919" transform="translate(113,77)"/>
<path d="M0 0 C-2.57404971 3.86107457 -4.61020259 3.94319692 -9 5 C-9.33 7.64 -9.66 10.28 -10 13 C-8.02 13 -6.04 13 -4 13 C-4 19.93 -4 26.86 -4 34 C-5.98 34 -7.96 34 -10 34 C-9.67 41.26 -9.34 48.52 -9 56 C-7.35 56.33 -5.7 56.66 -4 57 C-4 63.6 -4 70.2 -4 77 C-5.485 77.495 -5.485 77.495 -7 78 C-5.6860347 80.3463666 -4.35132616 82.675341 -3 85 C-2.46375 85.94875 -1.9275 86.8975 -1.375 87.875 C1.60374587 91.79440246 5.10931027 94.77348557 8.85546875 97.94921875 C11 100 11 100 12 103 C3.4883002 101.63812803 -2.05244504 95.5608881 -7 89 C-9.11821204 85.48182024 -10.6992881 81.90213571 -12 78 C-14.31 78 -16.62 78 -19 78 C-19 71.07 -19 64.14 -19 57 C-17.35 57 -15.7 57 -14 57 C-14 49.41 -14 41.82 -14 34 C-15.65 34 -17.3 34 -19 34 C-19 27.07 -19 20.14 -19 13 C-17.35 13 -15.7 13 -14 13 C-14 9.37 -14 5.74 -14 2 C-9.15758367 0.66416101 -5.06562383 -0.25328119 0 0 Z " fill="#131313" transform="translate(53,40)"/>
<path d="M0 0 C0.33 0 0.66 0 1 0 C1.00586624 0.99034744 1.01173248 1.98069489 1.01777649 3.00105286 C1.07519543 12.37196601 1.14805586 21.74265136 1.23571491 31.11333179 C1.28028484 35.92994804 1.31956987 40.74648231 1.34643555 45.56323242 C1.37260272 50.21886283 1.41309826 54.87417546 1.46318626 59.52960777 C1.4797648 61.29839792 1.49133483 63.06724293 1.49761391 64.83609962 C1.53160295 73.53741767 1.56324168 81.61610107 4.36174011 89.96147156 C5 92 5 92 5 95 C5.66 95 6.32 95 7 95 C8.39734087 96.97555088 9.70841414 98.95686419 11 101 C21.22456707 117.05147088 39.84757907 126.90244651 57 134 C57.76183594 134.37769531 58.52367187 134.75539062 59.30859375 135.14453125 C65.79549435 138.1704022 70.23268704 138.34927445 77 136 C79.02156704 135.04435012 81.02966574 134.05725253 83 133 C83.99 133 84.98 133 86 133 C86 132.34 86 131.68 86 131 C92.625 128 92.625 128 96 128 C96 127.34 96 126.68 96 126 C96.52207031 125.731875 97.04414062 125.46375 97.58203125 125.1875 C111.06650794 118.00837405 123.04883386 108.90233228 130 95 C130.66 95 131.32 95 132 95 C132.79502868 91.93448401 133.44932202 88.85676844 134.0625 85.75 C134.23910156 84.85796875 134.41570312 83.9659375 134.59765625 83.046875 C134.73042969 82.37140625 134.86320313 81.6959375 135 81 C135.33 81 135.66 81 136 81 C136 95.82173677 132.62771588 103.60310368 122.52734375 114.47412109 C112.99232 124 112.99232 124 108 124 C108 124.66 108 125.32 108 126 C105.37641075 128.41370211 102.5130038 129.72362025 99.234375 131.0546875 C96.38353249 132.26081318 93.60736561 133.60693001 90.8125 134.9375 C71.02662291 144.01359041 71.02662291 144.01359041 59.5078125 140.16796875 C56.97282458 139.17687534 54.49119292 138.09596943 52 137 C50.31390659 136.35050331 48.62640527 135.70464945 46.9375 135.0625 C40.92318197 132.66246457 35.38255313 129.58836876 30 126 C30 125.34 30 124.68 30 124 C29.43796875 123.9071875 28.8759375 123.814375 28.296875 123.71875 C20.27468983 121.20840634 12.88415522 112.57587378 8 106 C8 105.34 8 104.68 8 104 C7.01 103.67 6.02 103.34 5 103 C3.83203125 101.07421875 3.83203125 101.07421875 2.8125 98.6875 C2.46832031 97.90761719 2.12414062 97.12773437 1.76953125 96.32421875 C1 94 1 94 1 90 C0.34 90 -0.32 90 -1 90 C-1.33 87.69 -1.66 85.38 -2 83 C-1.34 83 -0.68 83 0 83 C0 55.61 0 28.22 0 0 Z " fill="#242424" transform="translate(27,33)"/>
<path d="M0 0 C1.19882813 0.07863281 2.39765625 0.15726563 3.6328125 0.23828125 C6.55654334 0.64337649 8.384653 1.16975121 10.875 2.6875 C10.875 3.3475 10.875 4.0075 10.875 4.6875 C12.855 5.3475 14.835 6.0075 16.875 6.6875 C17.1225 6.089375 17.37 5.49125 17.625 4.875 C19.05572525 2.37123081 20.4441582 1.20677612 22.875 -0.3125 C23.535 -0.3125 24.195 -0.3125 24.875 -0.3125 C24.38800383 4.07046556 23.04104109 5.71933648 19.875 8.6875 C19.545 9.6775 19.215 10.6675 18.875 11.6875 C19.865 12.0175 20.855 12.3475 21.875 12.6875 C25.51616614 19.76754526 25.27057068 27.91569949 24.875 35.6875 C23.48304085 38.4714183 21.71924221 38.66648997 18.875 39.6875 C18.89820313 38.39714844 18.92140625 37.10679688 18.9453125 35.77734375 C18.96408236 34.05990166 18.98228125 32.34245326 19 30.625 C19.01675781 29.77744141 19.03351563 28.92988281 19.05078125 28.05664062 C19.09096135 22.85331799 18.57245815 18.61280179 16.875 13.6875 C15.225 14.6775 13.575 15.6675 11.875 16.6875 C12.37 23.6175 12.37 23.6175 12.875 30.6875 C11.885 30.6875 10.895 30.6875 9.875 30.6875 C9.6275 29.82125 9.38 28.955 9.125 28.0625 C7.57402728 23.87487365 5.82776756 20.03423625 2.0625 17.4375 C0.13511901 16.77668366 -1.8378026 16.25204171 -3.8125 15.75 C-5.4521875 15.2240625 -5.4521875 15.2240625 -7.125 14.6875 C-7.455 13.6975 -7.785 12.7075 -8.125 11.6875 C-3.55572205 11.50099886 0.26031746 11.50611827 4.6875 12.8125 C7.77272749 13.98789104 7.77272749 13.98789104 10.3125 12.8125 C10.828125 12.44125 11.34375 12.07 11.875 11.6875 C11.16039726 8.45057129 11.16039726 8.45057129 8.125 7.0625 C2.66356711 4.87563694 -3.31643368 4.9408059 -9.125 4.6875 C-8.135 4.3575 -7.145 4.0275 -6.125 3.6875 C-6.125 3.0275 -6.125 2.3675 -6.125 1.6875 C-10.415 2.6775 -14.705 3.6675 -19.125 4.6875 C-18.125 2.6875 -18.125 2.6875 -15.9375 1.625 C-10.52733363 -0.17838879 -5.66928934 -0.41019696 0 0 Z " fill="#1C1C1C" transform="translate(99.125,63.3125)"/>
<path d="M0 0 C3.6578218 2.03993908 5.66946174 3.50419262 8 7 C8.66624845 11.07463524 8.94496094 15.24356703 6.94921875 18.953125 C5.18683214 21.0950226 3.49210321 22.7539484 1 24 C-7.90607735 24.43093923 -7.90607735 24.43093923 -11 22 C-14.22545174 18.23697297 -15.77050841 15.08907487 -15.52734375 10.03125 C-14.53849395 6.22234708 -11.96596598 3.48967948 -9 1 C-5.64870516 -0.11709828 -3.51689744 -0.34479387 0 0 Z " fill="#F1F1F1" transform="translate(99,79)"/>
<path d="M0 0 C0.68078613 0.17192871 1.36157227 0.34385742 2.06298828 0.52099609 C8.18992012 2.08505289 14.2714902 3.80367153 20.35620117 5.52319336 C25.76251534 7.03501289 31.15672754 8.26873392 36.6875 9.25 C35.3675 9.58 34.0475 9.91 32.6875 10.25 C32.6875 11.24 32.6875 12.23 32.6875 13.25 C34.1725 13.745 34.1725 13.745 35.6875 14.25 C30.66529023 13.66407553 26.25172684 12.56406409 21.4375 10.9375 C15.27355212 8.92903084 9.09439071 7.33167031 2.75 6 C1.59806152 5.75576294 1.59806152 5.75576294 0.42285156 5.5065918 C-10.22603056 3.20601629 -10.22603056 3.20601629 -20.875 4.4375 C-21.88046875 4.71851563 -22.8859375 4.99953125 -23.921875 5.2890625 C-25.04078125 5.60617188 -26.1596875 5.92328125 -27.3125 6.25 C-30.07883018 6.95586301 -32.85205436 7.63315562 -35.625 8.3125 C-39.46606931 9.25900048 -43.28328679 10.24136331 -47.078125 11.36328125 C-50.31464434 12.25058788 -52.97567654 12.41277188 -56.3125 12.25 C-56.3125 11.92 -56.3125 11.59 -56.3125 11.25 C-57.9625 10.92 -59.6125 10.59 -61.3125 10.25 C-58.24464007 8.5648375 -55.3409689 7.66758865 -51.9375 6.875 C-47.33101162 5.76966722 -42.79249017 4.53175727 -38.25 3.1875 C-33.07147559 1.68258075 -27.96018974 0.55466895 -22.640625 -0.30859375 C-20.11684885 -0.72188715 -20.11684885 -0.72188715 -17.0625 -1.9375 C-11.48762754 -3.58462141 -5.50130052 -1.39389131 0 0 Z " fill="#242424" transform="translate(108.3125,29.75)"/>
<path d="M0 0 C1.64630328 0.14042877 3.29204179 0.28749329 4.9375 0.4375 C6.31228516 0.55931641 6.31228516 0.55931641 7.71484375 0.68359375 C10 1 10 1 11 2 C11.11097012 4.38503765 11.15738426 6.74138769 11.16113281 9.12744141 C11.16609772 9.87402512 11.17106262 10.62060883 11.17617798 11.38981628 C11.19085883 13.87707428 11.19761746 16.36426815 11.203125 18.8515625 C11.20887922 20.58539837 11.21463692 22.31923422 11.22039795 24.05307007 C11.23092987 27.70335181 11.23675566 31.35361144 11.24023438 35.00390625 C11.24567136 39.6423617 11.26958545 44.28051643 11.29820633 48.91887856 C11.31701374 52.51039417 11.3220482 56.10184068 11.32357025 59.69340134 C11.32656549 61.40032947 11.33448581 63.10725732 11.34775543 64.81413651 C11.42562783 75.6177033 10.58511378 85.48076747 8 96 C7.01 95.67 6.02 95.34 5 95 C5.16298584 93.73559082 5.32597168 92.47118164 5.49389648 91.16845703 C6.31471655 82.90161994 6.1230606 74.60249278 6.09765625 66.3046875 C6.09578808 64.50294026 6.09436606 62.70119251 6.09336853 60.89944458 C6.08957474 56.1878923 6.07977172 51.4763715 6.06866455 46.76483154 C6.0583825 41.94478786 6.05385643 37.12473902 6.04882812 32.3046875 C6.03814624 22.86977794 6.0211081 13.4348916 6 4 C4.02 3.34 2.04 2.68 0 2 C0 1.34 0 0.68 0 0 Z " fill="#101010" transform="translate(157,29)"/>
<path d="M0 0 C4.13354822 0.48224729 7.95541924 0.98885481 12 2 C12 26.75 12 51.5 12 77 C10.515 77.495 10.515 77.495 9 78 C9 78.99 9 79.98 9 81 C8.01 81 7.02 81 6 81 C6.16265854 79.99202866 6.32531708 78.98405731 6.49290466 77.94554138 C6.97479636 74.19610116 7.12045559 70.64829389 7.11352539 66.87133789 C7.11367142 66.19731934 7.11381744 65.52330078 7.1139679 64.82885742 C7.11327769 62.62675628 7.10552764 60.4247424 7.09765625 58.22265625 C7.09578889 56.68566433 7.09436649 55.14867181 7.09336853 53.61167908 C7.08956837 49.58562549 7.0797597 45.55960854 7.06866455 41.53356934 C7.0583964 37.41756689 7.05385938 33.30155847 7.04882812 29.18554688 C7.03813497 21.12368119 7.02108891 13.06184517 7 5 C4.69 4.34 2.38 3.68 0 3 C0 2.01 0 1.02 0 0 Z " fill="#151515" transform="translate(141,40)"/>
<path d="M0 0 C1.72880982 -0.05449838 3.45812712 -0.09301688 5.1875 -0.125 C6.15042969 -0.14820313 7.11335938 -0.17140625 8.10546875 -0.1953125 C11.16680677 0.01125552 13.19986085 0.79611852 16 2 C18.52355384 2.55992566 21.05076127 2.99797421 23.59765625 3.4375 C26 4 26 4 27.8112793 4.95458984 C30.33058573 6.1578994 32.69088186 6.7125195 35.421875 7.2890625 C36.44667969 7.50820313 37.47148438 7.72734375 38.52734375 7.953125 C39.59082031 8.17484375 40.65429688 8.3965625 41.75 8.625 C43.36841797 8.96917969 43.36841797 8.96917969 45.01953125 9.3203125 C47.67869512 9.88509067 50.3388238 10.44479514 53 11 C53 11.66 53 12.32 53 13 C53.57105469 13.03738281 54.14210938 13.07476562 54.73046875 13.11328125 C62.00609452 13.70319685 68.92566508 15.23696042 76 17 C72.61682513 17.97591583 70.4342662 17.85856655 67 17 C67.495 18.485 67.495 18.485 68 20 C62.72 19.01 57.44 18.02 52 17 C52 16.34 52 15.68 52 15 C51.28714844 14.96261719 50.57429688 14.92523438 49.83984375 14.88671875 C48.88207031 14.82097656 47.92429688 14.75523438 46.9375 14.6875 C45.52791016 14.60048828 45.52791016 14.60048828 44.08984375 14.51171875 C40.40179367 13.90092917 37.42817864 12.47823955 34 11 C31.47261991 10.41375204 28.92924022 9.89268537 26.375 9.4375 C19.47973641 8.19970927 19.47973641 8.19970927 16.41015625 6.921875 C7.84339944 3.64512523 -4.05399309 6.24891096 -13 7 C-12.67 6.34 -12.34 5.68 -12 5 C-10.35 5 -8.7 5 -7 5 C-7 4.34 -7 3.68 -7 3 C-3.535 2.505 -3.535 2.505 0 2 C0 1.34 0 0.68 0 0 Z " fill="#222222" transform="translate(90,12)"/>
<path d="M0 0 C0.33 0 0.66 0 1 0 C1 14.82173677 -2.37228412 22.60310368 -12.47265625 33.47412109 C-22.00768 43 -22.00768 43 -27 43 C-27 43.66 -27 44.32 -27 45 C-29 46.625 -29 46.625 -31 48 C-31.66 47.67 -32.32 47.34 -33 47 C-32.67 46.01 -32.34 45.02 -32 44 C-32.99 43.67 -33.98 43.34 -35 43 C-34.34515625 42.62230469 -33.6903125 42.24460938 -33.015625 41.85546875 C-21.4221245 34.86334345 -11.14939218 26.29878436 -5 14 C-4.34 14 -3.68 14 -3 14 C-2.20497132 10.93448401 -1.55067798 7.85676844 -0.9375 4.75 C-0.76089844 3.85796875 -0.58429688 2.9659375 -0.40234375 2.046875 C-0.26957031 1.37140625 -0.13679688 0.6959375 0 0 Z " fill="#242424" transform="translate(162,114)"/>
<path d="M0 0 C2.18359375 1.09765625 2.18359375 1.09765625 5.24609375 3.09765625 C5.24609375 6.09765625 5.24609375 6.09765625 3.68359375 7.91015625 C0.09238229 9.65972081 -1.99985014 8.26695241 -5.75390625 7.09765625 C-10.51246091 6.6621812 -13.70114787 6.39581733 -17.75390625 9.09765625 C-20.78842998 8.71834078 -22.12951646 7.84724944 -24.75390625 6.09765625 C-24.62890625 4.28515625 -24.62890625 4.28515625 -23.75390625 2.09765625 C-16.79303328 -2.22143963 -7.75006296 -2.53938233 0 0 Z " fill="#E6E6E6" transform="translate(105.75390625,68.90234375)"/>
<path d="M0 0 C0.99 0 1.98 0 3 0 C3 0.66 3 1.32 3 2 C5.04159095 2.0272616 7.08328963 2.04651345 9.125 2.0625 C10.83042969 2.07990234 10.83042969 2.07990234 12.5703125 2.09765625 C15.8129156 2.005327 18.81932612 1.61389906 22 1 C22.99 2.65 23.98 4.3 25 6 C20.60167688 9.89565762 17.71901607 10.98298488 11.87890625 11.01953125 C0.89290386 10.33371485 0.89290386 10.33371485 -4 6 C-3.67 5.01 -3.34 4.02 -3 3 C-2.34 3 -1.68 3 -1 3 C-0.67 2.01 -0.34 1.02 0 0 Z " fill="#E5E5E5" transform="translate(85,104)"/>
<path d="M0 0 C3.28212246 0.43761633 4.84832931 1.52557871 7 4 C6.67257813 4.52078125 6.34515625 5.0415625 6.0078125 5.578125 C4.68910164 8.74712009 4.80659724 11.3298619 4.875 14.75 C4.90207031 16.50570312 4.90207031 16.50570312 4.9296875 18.296875 C4.95289062 19.18890625 4.97609375 20.0809375 5 21 C5.66 21.33 6.32 21.66 7 22 C7 22.99 7 23.98 7 25 C5.1875 26.75 5.1875 26.75 3 28 C0 27 0 27 -1.16796875 25.21484375 C-4.89298799 16.89420691 -4.78637648 11.32588159 -1.75390625 2.78515625 C-1 1 -1 1 0 0 Z " fill="#E6E6E6" transform="translate(76,77)"/>
<path d="M0 0 C3.98014284 6.79941069 3.84700301 14.30223732 3 22 C1.4765625 25.46484375 1.4765625 25.46484375 0 28 C-2.86724686 27.42655063 -3.8614515 27.1385485 -6 25 C-5.71917202 22.65976685 -5.37531446 20.32694964 -5 18 C-4.77598232 13.91967806 -4.96020974 10.22065506 -5.6875 6.1875 C-6 3 -6 3 -4.75 1.0625 C-3 0 -3 0 0 0 Z " fill="#EBEBEB" transform="translate(116,77)"/>
<path d="M0 0 C0 0.99 0 1.98 0 3 C-2.31 3.33 -4.62 3.66 -7 4 C-7 31.39 -7 58.78 -7 87 C-7.66 87 -8.32 87 -9 87 C-9 58.95 -9 30.9 -9 2 C-5.23312136 0.11656068 -3.97041037 -0.22057835 0 0 Z " fill="#010101" transform="translate(34,29)"/>
<path d="M0 0 C3.3 0.33 6.6 0.66 10 1 C10 1.66 10 2.32 10 3 C10.85658203 3.05607422 10.85658203 3.05607422 11.73046875 3.11328125 C19.00609452 3.70319685 25.92566508 5.23696042 33 7 C29.61682513 7.97591583 27.4342662 7.85856655 24 7 C24.33 7.99 24.66 8.98 25 10 C19.72 9.01 14.44 8.02 9 7 C9 6.34 9 5.68 9 5 C8.24074219 4.95101563 7.48148438 4.90203125 6.69921875 4.8515625 C5.20841797 4.73941406 5.20841797 4.73941406 3.6875 4.625 C2.70136719 4.55539063 1.71523437 4.48578125 0.69921875 4.4140625 C-2 4 -2 4 -5 2 C-3.35 1.67 -1.7 1.34 0 1 C0 0.67 0 0.34 0 0 Z " fill="#2A2A2A" transform="translate(133,22)"/>
<path d="M0 0 C0 0.33 0 0.66 0 1 C-1.65 1.33 -3.3 1.66 -5 2 C-2.03 2 0.94 2 4 2 C4 2.33 4 2.66 4 3 C-5.64432781 5.43893784 -15.29631332 7.80670096 -25 10 C-25 9.01 -25 8.02 -25 7 C-27.31 7 -29.62 7 -32 7 C-32 6.67 -32 6.34 -32 6 C-31.18917969 5.81824219 -30.37835938 5.63648438 -29.54296875 5.44921875 C-24.04350008 4.20079455 -18.59737809 2.90811011 -13.1875 1.3125 C-8.61856309 0.02623037 -4.72953529 -0.26770954 0 0 Z " fill="#252525" transform="translate(83,16)"/>
<path d="M0 0 C-0.08203125 1.77734375 -0.08203125 1.77734375 -1 4 C-3.23747344 5.37804655 -5.31269724 6.48524492 -7.6875 7.5625 C-8.60692383 7.99852539 -8.60692383 7.99852539 -9.54492188 8.44335938 C-11.35953512 9.30352069 -13.17973862 10.15185659 -15 11 C-16.07894531 11.58652344 -17.15789062 12.17304688 -18.26953125 12.77734375 C-21 14 -21 14 -24 13 C-23.34 13 -22.68 13 -22 13 C-22.33 11.68 -22.66 10.36 -23 9 C-21.02 8.67 -19.04 8.34 -17 8 C-17 7.34 -17 6.68 -17 6 C-10.375 3 -10.375 3 -7 3 C-7 2.34 -7 1.68 -7 1 C-4.53721199 -0.231394 -2.7204945 -0.07159196 0 0 Z " fill="#222222" transform="translate(130,158)"/>
<path d="M0 0 C2.64 0 5.28 0 8 0 C8 4.29 8 8.58 8 13 C5.36 13 2.72 13 0 13 C0 8.71 0 4.42 0 0 Z " fill="#CECECE" transform="translate(37,101)"/>
<path d="M0 0 C1.99954746 -0.04254356 4.00041636 -0.04080783 6 0 C7.73141493 1.73141493 7.11977579 3.95750044 7.12442017 6.26478577 C7.12082489 7.01860031 7.11722961 7.77241486 7.11352539 8.54907227 C7.11367142 9.33925751 7.11381744 10.12944275 7.1139679 10.943573 C7.11326857 13.56787822 7.10547527 16.19211336 7.09765625 18.81640625 C7.09579214 20.63101665 7.0943682 22.44562756 7.09336853 24.26023865 C7.08954279 29.0459023 7.07971204 33.8315358 7.06866455 38.6171875 C7.05845163 43.49674064 7.05387117 48.37629864 7.04882812 53.25585938 C7.03808982 62.83725286 7.02101273 72.41862393 7 82 C6.67 82 6.34 82 6 82 C5.67 55.6 5.34 29.2 5 2 C3.35 1.67 1.7 1.34 0 1 C0 0.67 0 0.34 0 0 Z " fill="#A6A6A6" transform="translate(157,32)"/>
<path d="M0 0 C2.31 0 4.62 0 7 0 C7 4.29 7 8.58 7 13 C4.69 13 2.38 13 0 13 C0 8.71 0 4.42 0 0 Z " fill="#E3E3E3" transform="translate(38,57)"/>
<path d="M0 0 C2.88600779 1.37741281 5.5791327 2.6781603 8.125 4.625 C10.10304459 6.07556603 11.60587817 6.57247824 14 7 C14 7.66 14 8.32 14 9 C15.32 9.33 16.64 9.66 18 10 C18.33 11.32 18.66 12.64 19 14 C16.15449988 13.33989524 13.47674001 12.48275034 10.75 11.4375 C10.04359375 11.16808594 9.3371875 10.89867187 8.609375 10.62109375 C8.07828125 10.41613281 7.5471875 10.21117187 7 10 C7 9.34 7 8.68 7 8 C6.13375 7.7525 5.2675 7.505 4.375 7.25 C0.81697746 5.93221387 -1.9226155 4.19813178 -5 2 C-3.33333333 2 -1.66666667 2 0 2 C0 1.34 0 0.68 0 0 Z " fill="#2A2A2A" transform="translate(64,140)"/>
<path d="M0 0 C3 2 3 2 4.3671875 4.3359375 C6.25080445 7.40920726 8.38258812 9.29834735 11.125 11.625 C15.89083558 15.67250674 15.89083558 15.67250674 17 19 C8.51605581 17.64256893 2.94277359 11.54616112 -2 5 C-2.33 4.01 -2.66 3.02 -3 2 C-2.34 2 -1.68 2 -1 2 C-1 2.66 -1 3.32 -1 4 C-0.34 3.67 0.32 3.34 1 3 C0.67 2.01 0.34 1.02 0 0 Z " fill="#191919" transform="translate(48,124)"/>
<path d="M0 0 C2.475 0.495 2.475 0.495 5 1 C5.04631189 9.94465318 5.08186333 18.88926518 5.10362434 27.83401203 C5.11406779 31.98728478 5.12823719 36.14047559 5.15087891 40.29370117 C5.17258734 44.30074559 5.1845644 48.30771112 5.18975449 52.3148098 C5.19345384 53.84464955 5.20067765 55.37448492 5.21146011 56.90429115 C5.22594863 59.04476933 5.22797908 61.18492025 5.22705078 63.32543945 C5.231492 64.54455521 5.23593323 65.76367096 5.24050903 67.01972961 C5 70 5 70 3 73 C3 49.57 3 26.14 3 2 C2.01 2 1.02 2 0 2 C0 1.34 0 0.68 0 0 Z " fill="#A5A5A5" transform="translate(144,44)"/>
<path d="M0 0 C0.33 0 0.66 0 1 0 C0.855625 1.19625 0.71125 2.3925 0.5625 3.625 C-0.1590461 10.06737585 -0.56763736 16.53295884 -1 23 C-1.99 22.67 -2.98 22.34 -4 22 C-5.98369696 16.04890913 -5.87634652 10.08558324 -3.0625 4.4375 C-1.30275229 1.30275229 -1.30275229 1.30275229 0 0 Z " fill="#121212" transform="translate(73,78)"/>
<path d="M0 0 C-0.33 0.66 -0.66 1.32 -1 2 C-1.66 2 -2.32 2 -3 2 C-3 2.66 -3 3.32 -3 4 C-8.91108734 6.18453228 -13.80919319 6.12045681 -20 5 C-20.66 4.67 -21.32 4.34 -22 4 C-22 3.01 -22 2.02 -22 1 C-21.3709375 1.10699219 -20.741875 1.21398437 -20.09375 1.32421875 C-15.48907641 1.96915044 -11.97935022 2.31568188 -7.625 0.5 C-3.96610114 -1.01402711 -3.46301739 -1.15942432 0 0 Z " fill="#0E0E0E" transform="translate(109,169)"/>
<path d="M0 0 C6.27 0 12.54 0 19 0 C19 0.99 19 1.98 19 3 C12.59345955 4.28130809 6.39375619 4.59843905 0 3 C0 2.01 0 1.02 0 0 Z " fill="#131313" transform="translate(87,115)"/>
<path d="M0 0 C0.33 1.32 0.66 2.64 1 4 C1.66 4 2.32 4 3 4 C2.36934243 7.21852831 1.21979305 9.50801069 -0.5625 12.25 C-1.01753906 12.95640625 -1.47257813 13.6628125 -1.94140625 14.390625 C-2.29074219 14.92171875 -2.64007813 15.4528125 -3 16 C-3.66 15.34 -4.32 14.68 -5 14 C-6.32 14.99 -7.64 15.98 -9 17 C-9.66 16.67 -10.32 16.34 -11 16 C-10.04882866 14.8274869 -9.08882991 13.66212985 -8.125 12.5 C-7.59132812 11.8503125 -7.05765625 11.200625 -6.5078125 10.53125 C-5.76144531 9.77328125 -5.76144531 9.77328125 -5 9 C-4.34 9 -3.68 9 -3 9 C-2.01 6.03 -1.02 3.06 0 0 Z " fill="#2B2B2B" transform="translate(146,117)"/>
<path d="M0 0 C5.78898419 -0.20674944 10.42932723 0.40837921 16 2 C16.33 3.32 16.66 4.64 17 6 C11.07521088 5.66043699 6.12778478 5.28704152 1 2 C0.67 1.34 0.34 0.68 0 0 Z " fill="#191919" transform="translate(95,29)"/>
<path d="M0 0 C0.66 0 1.32 0 2 0 C2.69809445 2.26805795 3.38371017 4.53866607 4.0625 6.8125 C4.26166016 7.45509766 4.46082031 8.09769531 4.66601562 8.75976562 C6.11328125 13.66015625 6.11328125 13.66015625 5 17 C3 15.25 3 15.25 1 13 C1 11.68 1 10.36 1 9 C0.34 9 -0.32 9 -1 9 C-1.33 6.69 -1.66 4.38 -2 2 C-1.34 2 -0.68 2 0 2 C0 1.34 0 0.68 0 0 Z " fill="#131313" transform="translate(27,114)"/>
<path d="M0 0 C5.85845561 0.44793021 11.48313583 0.8871584 17 3 C17.33 3.99 17.66 4.98 18 6 C11.58518742 6.42765417 6.11404596 4.85743168 0 3 C0 2.01 0 1.02 0 0 Z " fill="#0D0D0D" transform="translate(116,18)"/>
<path d="M0 0 C0.66 0.33 1.32 0.66 2 1 C1.360625 1.763125 0.72125 2.52625 0.0625 3.3125 C-2.14232781 5.88246713 -2.14232781 5.88246713 -3 9 C-3.66 9 -4.32 9 -5 9 C-5 9.66 -5 10.32 -5 11 C-7 12.625 -7 12.625 -9 14 C-9.66 13.67 -10.32 13.34 -11 13 C-10.67 12.01 -10.34 11.02 -10 10 C-10.99 9.67 -11.98 9.34 -13 9 C-12.22914062 8.51789063 -11.45828125 8.03578125 -10.6640625 7.5390625 C-9.66117188 6.90742188 -8.65828125 6.27578125 -7.625 5.625 C-6.62726563 4.99851563 -5.62953125 4.37203125 -4.6015625 3.7265625 C-1.9751981 2.10730288 -1.9751981 2.10730288 0 0 Z " fill="#363636" transform="translate(140,148)"/>
<path d="M0 0 C0.33 0 0.66 0 1 0 C1 14.5 1 14.5 -2 20 C-2.99 20 -3.98 20 -5 20 C-6.125 16.25 -6.125 16.25 -5 14 C-4.34 14 -3.68 14 -3 14 C-2.20497132 10.93448401 -1.55067798 7.85676844 -0.9375 4.75 C-0.76089844 3.85796875 -0.58429688 2.9659375 -0.40234375 2.046875 C-0.26957031 1.37140625 -0.13679687 0.6959375 0 0 Z " fill="#292929" transform="translate(162,114)"/>
<path d="M0 0 C2 3 2 3 3.5 6.0625 C4.82567342 9.03112476 4.82567342 9.03112476 7 11 C6.01 11.66 5.02 12.32 4 13 C3.01 14.485 3.01 14.485 2 16 C-2.12376682 8.48520179 -2.12376682 8.48520179 -1.8203125 4.84375 C-1.25 2.9375 -1.25 2.9375 0 0 Z " fill="#272727" transform="translate(72,95)"/>
<path d="M0 0 C-0.18359375 1.828125 -0.18359375 1.828125 -1 4 C-3.28515625 5.484375 -3.28515625 5.484375 -6.0625 6.75 C-7.44115234 7.39195312 -7.44115234 7.39195312 -8.84765625 8.046875 C-9.55792969 8.36140625 -10.26820312 8.6759375 -11 9 C-11 7.68 -11 6.36 -11 5 C-10.34 5 -9.68 5 -9 5 C-9 4.34 -9 3.68 -9 3 C-8.34 3 -7.68 3 -7 3 C-7 2.34 -7 1.68 -7 1 C-4.53721199 -0.231394 -2.7204945 -0.07159196 0 0 Z " fill="#1A1A1A" transform="translate(130,158)"/>
<path d="M0 0 C0.33 0 0.66 0 1 0 C1 6.93 1 13.86 1 21 C0.34 21 -0.32 21 -1 21 C-0.34 24.3 0.32 27.6 1 31 C0.34 31 -0.32 31 -1 31 C-4.44419134 21.58997722 -4.44419134 21.58997722 -4 17 C-3.34 17 -2.68 17 -2 17 C-2 17.99 -2 18.98 -2 20 C-1.34 20 -0.68 20 0 20 C0 13.4 0 6.8 0 0 Z " fill="#A3A3A3" transform="translate(33,97)"/>
<path d="M0 0 C1.79133978 -0.05391993 3.58313899 -0.09275571 5.375 -0.125 C6.37273437 -0.14820313 7.37046875 -0.17140625 8.3984375 -0.1953125 C11 0 11 0 13 2 C11.68 2 10.36 2 9 2 C9 2.99 9 3.98 9 5 C9.99 5.33 10.98 5.66 12 6 C8.53058454 5.54177532 5.32604951 5.10868317 2 4 C2 3.34 2 2.68 2 2 C1.34 2 0.68 2 0 2 C0 1.34 0 0.68 0 0 Z " fill="#383838" transform="translate(132,38)"/>
<path d="M0 0 C1.794375 0.7115625 1.794375 0.7115625 3.625 1.4375 C7.06414238 2.73482773 10.33895604 3.54236951 14 4 C14 4.33 14 4.66 14 5 C12.02 5 10.04 5 8 5 C8 5.99 8 6.98 8 8 C2.25 6.25 2.25 6.25 0 4 C0 2.68 0 1.36 0 0 Z " fill="#272727" transform="translate(79,110)"/>
<path d="M0 0 C0 0.66 0 1.32 0 2 C-0.60328125 2.25394531 -1.2065625 2.50789063 -1.828125 2.76953125 C-7.75675636 5.29568376 -7.75675636 5.29568376 -13 9 C-13.33 7.35 -13.66 5.7 -14 4 C-4.58997722 -0.59225513 -4.58997722 -0.59225513 0 0 Z " fill="#0F0F0F" transform="translate(93,65)"/>
<path d="M0 0 C-1.98 0.99 -1.98 0.99 -4 2 C-1.69 2.66 0.62 3.32 3 4 C3 4.33 3 4.66 3 5 C-0.96 5 -4.92 5 -9 5 C-8.01 4.67 -7.02 4.34 -6 4 C-6 3.34 -6 2.68 -6 2 C-10.29 2.99 -14.58 3.98 -19 5 C-18 3 -18 3 -15.8125 1.9375 C-10.50813565 0.16937855 -5.57082044 -0.11141641 0 0 Z " fill="#464646" transform="translate(99,63)"/>
<path d="M0 0 C2.31 0.33 4.62 0.66 7 1 C4.63202009 3.61724095 2.10399646 5.32861729 -1 7 C-1.66 7 -2.32 7 -3 7 C-2.67 5.35 -2.34 3.7 -2 2 C-1.34 2 -0.68 2 0 2 C0 1.34 0 0.68 0 0 Z " fill="#1E1E1E" transform="translate(112,148)"/>
<path d="M0 0 C6.625 0.75 6.625 0.75 10 3 C9.01 3 8.02 3 7 3 C7 3.99 7 4.98 7 6 C4.6568787 5.74438677 2.32156597 5.40729228 0 5 C-0.33 4.34 -0.66 3.68 -1 3 C-0.01 2.67 0.98 2.34 2 2 C1.34 1.34 0.68 0.68 0 0 Z " fill="#333333" transform="translate(109,15)"/>
<path d="M0 0 C5.75 1.75 5.75 1.75 8 4 C7.01 4 6.02 4 5 4 C5.33 4.99 5.66 5.98 6 7 C3.36 6.34 0.72 5.68 -2 5 C-1.01 4.67 -0.02 4.34 1 4 C0.67 2.68 0.34 1.36 0 0 Z " fill="#393939" transform="translate(82,150)"/>
<path d="M0 0 C0.33 1.32 0.66 2.64 1 4 C-3.39453125 8.00390625 -3.39453125 8.00390625 -5 9 C-5.99 8.67 -6.98 8.34 -8 8 C-6.49776416 3.79373966 -3.71449966 2.26099979 0 0 Z " fill="#0C0C0C" transform="translate(141,130)"/>
<path d="M0 0 C0.66 0.33 1.32 0.66 2 1 C2 2.65 2 4.3 2 6 C2.99 6.33 3.98 6.66 5 7 C4.34 9.31 3.68 11.62 3 14 C2.34 12.68 1.68 11.36 1 10 C0.34 10 -0.32 10 -1 10 C-0.67 6.7 -0.34 3.4 0 0 Z " fill="#404040" transform="translate(107,88)"/>
<path d="M0 0 C2.64 0.66 5.28 1.32 8 2 C7.01 2.33 6.02 2.66 5 3 C5 3.99 5 4.98 5 6 C-0.75 4.25 -0.75 4.25 -3 2 C-2.01 2 -1.02 2 0 2 C0 1.34 0 0.68 0 0 Z " fill="#292929" transform="translate(82,167)"/>
<path d="M0 0 C2.78211944 0.37596209 4.5879284 0.67318459 6.8125 2.4375 C8 4 8 4 8 6 C5.07120629 5.37240135 2.63904371 4.41377341 0 3 C0 2.01 0 1.02 0 0 Z " fill="#0A0A0A" transform="translate(75,148)"/>
<path d="M0 0 C-0.99 0.495 -0.99 0.495 -2 1 C-1.01 1.66 -0.02 2.32 1 3 C-0.65 3.33 -2.3 3.66 -4 4 C-4.33 3.34 -4.66 2.68 -5 2 C-9.455 2.495 -9.455 2.495 -14 3 C-9.97146847 -1.02853153 -5.4595779 -1.96544804 0 0 Z " fill="#4D4D4D" transform="translate(38,28)"/>
<path d="M0 0 C1.23556641 0.01740234 1.23556641 0.01740234 2.49609375 0.03515625 C3.32238281 0.04417969 4.14867188 0.05320313 5 0.0625 C5.63808594 0.07410156 6.27617188 0.08570313 6.93359375 0.09765625 C7.26359375 1.08765625 7.59359375 2.07765625 7.93359375 3.09765625 C0.50502232 3.38337054 0.50502232 3.38337054 -3.06640625 1.09765625 C-2.06640625 0.09765625 -2.06640625 0.09765625 0 0 Z " fill="#070707" transform="translate(97.06640625,63.90234375)"/>
<path d="M0 0 C-2.82553984 4.23830976 -5.12180888 3.97715348 -10 5 C-7.62417533 -0.26075462 -5.61350876 -0.1220328 0 0 Z " fill="#040404" transform="translate(53,40)"/>
<path d="M0 0 C-2 3 -2 3 -4.3828125 3.51171875 C-5.28773437 3.56972656 -6.19265625 3.62773437 -7.125 3.6875 C-8.03507812 3.75324219 -8.94515625 3.81898437 -9.8828125 3.88671875 C-10.93082031 3.94279297 -10.93082031 3.94279297 -12 4 C-11.67 3.34 -11.34 2.68 -11 2 C-9.35 2 -7.7 2 -6 2 C-6 1.34 -6 0.68 -6 0 C-3 -1 -3 -1 0 0 Z " fill="#090909" transform="translate(89,15)"/>
<path d="M0 0 C0.66 0.33 1.32 0.66 2 1 C1.61402985 3.79828356 1.19863427 4.8205884 -0.9375 6.75 C-3 8 -3 8 -5 8 C-3.62845496 5.04590299 -2.01136276 2.55991624 0 0 Z " fill="#0B0B0B" transform="translate(142,148)"/>
<path d="M0 0 C-0.75 4.75 -0.75 4.75 -3 7 C-3 5.68 -3 4.36 -3 3 C-3.99 3.33 -4.98 3.66 -6 4 C-5.67 3.01 -5.34 2.02 -5 1 C-2 0 -2 0 0 0 Z " fill="#3A3A3A" transform="translate(122,101)"/>
<path d="M0 0 C0 0.66 0 1.32 0 2 C0.99 2.66 1.98 3.32 3 4 C1.35 4.33 -0.3 4.66 -2 5 C-2 4.01 -2 3.02 -2 2 C-4.31 2 -6.62 2 -9 2 C-9 1.67 -9 1.34 -9 1 C-5.846632 0.29925156 -3.27275026 0 0 0 Z " fill="#444444" transform="translate(60,21)"/>
<path d="M0 0 C1.98 0.66 3.96 1.32 6 2 C6 2.66 6 3.32 6 4 C3.69 3.67 1.38 3.34 -1 3 C-0.67 2.01 -0.34 1.02 0 0 Z " fill="#080808" transform="translate(76,165)"/>
<path d="M0 0 C0.33 0 0.66 0 1 0 C0.67 2.97 0.34 5.94 0 9 C-0.99 8.01 -1.98 7.02 -3 6 C-1.125 1.125 -1.125 1.125 0 0 Z " fill="#0B0B0B" transform="translate(73,78)"/>
<path d="M0 0 C0.33 0.99 0.66 1.98 1 3 C-0.65 4.65 -2.3 6.3 -4 8 C-4.66 7.67 -5.32 7.34 -6 7 C-4.02 4.69 -2.04 2.38 0 0 Z " fill="#C6C6C6" transform="translate(155,140)"/>
<path d="M0 0 C0 0.66 0 1.32 0 2 C-2.64 2.33 -5.28 2.66 -8 3 C-5.53387212 -0.1151089 -3.89156016 -0.31553191 0 0 Z " fill="#050505" transform="translate(93,65)"/>
</svg>
